<svg width="12" height="12" viewBox="0 0 12 12" fill="none" xmlns="http://www.w3.org/2000/svg">
<path d="M6 0C2.70447 0 0 2.70447 0 6C0 8.81223 1.97333 11.3668 4.59375 12V10.015C4.33411 10.0718 4.09515 10.0735 3.83084 9.99554C3.47626 9.8909 3.18814 9.65469 2.97427 9.29453C2.83795 9.06454 2.59634 8.81516 2.3443 8.83347L2.2825 8.13309C2.82751 8.0864 3.29901 8.46515 3.57889 8.93536C3.70322 9.14447 3.84631 9.26706 4.02997 9.32126C4.20749 9.37354 4.3981 9.34845 4.62021 9.26999C4.67596 8.82532 4.87967 8.65887 5.03357 8.4245V8.42413C3.47076 8.19104 2.84793 7.36194 2.60074 6.70752C2.27316 5.83859 2.44894 4.75305 3.0282 4.06705C3.03946 4.05368 3.05978 4.01871 3.05191 3.99426C2.78632 3.19199 3.10995 2.52832 3.12186 2.45792C3.42838 2.54855 3.47818 2.36673 4.45331 2.95917L4.62186 3.06042C4.69235 3.10245 4.6702 3.07846 4.74069 3.07315C5.14783 2.96255 5.57703 2.90149 5.99991 2.896C6.42599 2.90149 6.85245 2.96255 7.27643 3.07764L7.33099 3.08313C7.32623 3.0824 7.34583 3.07965 7.37869 3.06006C8.5968 2.32224 8.55304 2.56339 8.8797 2.45718C8.89151 2.52768 9.21085 3.20215 8.94809 3.99426C8.91266 4.10339 10.0042 5.10287 9.39917 6.70724C9.15198 7.36194 8.52924 8.19104 6.96643 8.42413V8.4245C7.16675 8.72983 7.40744 8.89224 7.40616 9.52213V12C10.0267 11.3668 11.9999 8.81223 11.9999 6C12 2.70447 9.29553 0 6 0V0Z" fill="#FAF6E9"/>
</svg>
