<svg width="12" height="12" viewBox="0 0 12 12" fill="none" xmlns="http://www.w3.org/2000/svg">
<path d="M10.9145 0H1.0855C0.486 0 0 0.486 0 1.0855V10.9145C0 11.514 0.486 12 1.0855 12H10.9145C11.514 12 12 11.514 12 10.9145V1.0855C12 0.486 11.514 0 10.9145 0ZM3.71331 10.3616C3.71331 10.5361 3.57188 10.6775 3.39741 10.6775H2.05272C1.87825 10.6775 1.73683 10.5361 1.73683 10.3616V4.7247C1.73683 4.55023 1.87825 4.40881 2.05272 4.40881H3.39741C3.57188 4.40881 3.71331 4.55023 3.71331 4.7247V10.3616ZM2.72507 3.87744C2.01955 3.87744 1.4476 3.3055 1.4476 2.59998C1.4476 1.89446 2.01955 1.32251 2.72507 1.32251C3.43059 1.32251 4.00253 1.89446 4.00253 2.59998C4.00253 3.3055 3.43062 3.87744 2.72507 3.87744ZM10.7406 10.387C10.7406 10.5474 10.6106 10.6775 10.4502 10.6775H9.00723C8.84683 10.6775 8.71677 10.5474 8.71677 10.387V7.74302C8.71677 7.34859 8.83247 6.01461 7.686 6.01461C6.79671 6.01461 6.61633 6.92768 6.58011 7.33743V10.387C6.58011 10.5474 6.45009 10.6775 6.28966 10.6775H4.89408C4.73369 10.6775 4.60363 10.5474 4.60363 10.387V4.69926C4.60363 4.53886 4.73369 4.40881 4.89408 4.40881H6.28966C6.45006 4.40881 6.58011 4.53886 6.58011 4.69926V5.19104C6.90986 4.69618 7.39992 4.31422 8.44332 4.31422C10.7539 4.31422 10.7406 6.47284 10.7406 7.65889V10.387Z" fill="#FAF6E9"/>
</svg>
