<svg width="12" height="12" viewBox="0 0 12 12" fill="none" xmlns="http://www.w3.org/2000/svg">
<path d="M6 0C2.6868 0 0 2.6868 0 6C0 9.3132 2.6868 12 6 12C9.3132 12 12 9.3132 12 6C12 2.6868 9.3132 0 6 0ZM8.73953 4.67816C8.74219 4.73721 8.74347 4.79654 8.74347 4.85614C8.74347 6.67593 7.35828 8.77441 4.8251 8.77451H4.8252H4.8251C4.04736 8.77451 3.32364 8.54654 2.71417 8.15588C2.82193 8.16861 2.93161 8.17493 3.04266 8.17493C3.68793 8.17493 4.28174 7.95483 4.75314 7.58542C4.15027 7.57425 3.64197 7.17609 3.46655 6.62888C3.55051 6.64499 3.63684 6.65378 3.72537 6.65378C3.85107 6.65378 3.97284 6.63684 4.08856 6.60526C3.4584 6.4791 2.9837 5.92218 2.9837 5.25531C2.9837 5.24908 2.9837 5.2435 2.98389 5.23773C3.16946 5.34091 3.38168 5.40298 3.60764 5.40994C3.23785 5.16321 2.99478 4.74142 2.99478 4.26361C2.99478 4.01129 3.06299 3.7749 3.18127 3.57138C3.86041 4.40469 4.87537 4.95273 6.01996 5.01031C5.99634 4.90942 5.98416 4.80432 5.98416 4.69629C5.98416 3.93604 6.60095 3.31924 7.36148 3.31924C7.75763 3.31924 8.11542 3.48669 8.36673 3.75439C8.68048 3.6925 8.9751 3.57788 9.24124 3.42014C9.13824 3.74158 8.91998 4.01129 8.63562 4.18185C8.91422 4.14853 9.17972 4.07465 9.42645 3.96497C9.24216 4.24118 9.00842 4.4838 8.73953 4.67816Z" fill="#FAF6E9"/>
</svg>
